<?xml version="1.0" encoding="UTF-8"?>
<!DOCTYPE svg PUBLIC "-//W3C//DTD SVG 1.1//EN" "http://www.w3.org/Graphics/SVG/1.1/DTD/svg11.dtd">
<!-- Creator: CorelDRAW 2021 (64-Bit) -->
<svg xmlns="http://www.w3.org/2000/svg" xml:space="preserve" width="16in" height="16in" version="1.1" style="shape-rendering:geometricPrecision; text-rendering:geometricPrecision; image-rendering:optimizeQuality; fill-rule:evenodd; clip-rule:evenodd"
viewBox="0 0 16000 16000"
 xmlns:xlink="http://www.w3.org/1999/xlink"
 xmlns:xodm="http://www.corel.com/coreldraw/odm/2003">
 <defs>
  <style type="text/css">
   <![CDATA[
    .str0 {stroke:black;stroke-width:56.44;stroke-linecap:round;stroke-linejoin:round;stroke-miterlimit:2.61313}
    .fil0 {fill:none}
   ]]>
  </style>
 </defs>
 <g id="Layer_x0020_1">
  <metadata id="CorelCorpID_0Corel-Layer"/>
  <g id="_2314707134320">
   <path class="fil0 str0" d="M9439.05 8187.33l1581.33 278.83c-113.56,-869.89 -602.83,-1646.9 -1325.7,-2127.71l332.44 -1885.35c1961.73,891.95 3151.1,3025.52 2759.56,5245.99 -464.15,2632.41 -2974.42,4390.1 -5606.82,3925.94 -2632.4,-464.16 -4390.11,-2974.42 -3925.94,-5606.82 391.53,-2220.47 2238.9,-3818.59 4387.38,-3985.79l-332.44 1885.34c-1132.53,274.58 -2052.25,1194.53 -2267.55,2415.61 -290.1,1645.25 964.14,3241.61 2453.71,3504.26 1489.56,262.65 2639.73,-464.67 3232.45,-1606.32l-1581.35 -278.83 292.92 -1765.15zm369.69 -3926.23c-279.63,-105.84 -573.11,-187.18 -878.37,-241.01 -305.24,-53.82 -608.84,-77.76 -907.8,-73.94l-1156.26 6553.66c299.17,-3.26 602.91,21.01 908.27,74.84 305.37,53.85 599.09,134.94 879.12,240.32l1155.03 -6553.88z"/>
   <path class="fil0 str0" d="M8985.42 3722.01c305.38,53.85 599.1,89.69 879.11,195.06l253.62 -1410.75c-279.63,-105.84 -573.12,-187.19 -878.38,-241.01 -305.25,-53.82 -608.86,-77.77 -907.83,-73.94l-254.8 1455.79c299.17,-3.25 602.91,21 908.28,74.85z"/>
  </g>
  <g id="_2314707135712">
   <path class="fil0 str0" d="M9613.06 7930.04l1652.12 291.31c-113.56,-869.89 -602.83,-1646.9 -1325.7,-2127.71l332.44 -1885.35c1961.73,891.95 3151.1,3025.52 2759.56,5245.99 -464.15,2632.41 -2974.42,4390.1 -5606.82,3925.94 -2632.4,-464.16 -4390.11,-2974.42 -3925.94,-5606.82 391.53,-2220.47 2238.9,-3818.59 4387.38,-3985.79l-332.44 1885.34c-1132.53,274.58 -2052.25,1194.53 -2267.55,2415.61 -290.1,1645.25 808.46,3214.17 2453.71,3504.26 1333.88,235.21 2617.49,-442.43 3210.21,-1584.08l-1625.47 -286.61 288.49 -1792.09zm370.85 -3841.58c-279.63,-105.84 -573.11,-187.18 -878.37,-241.01 -305.24,-53.83 -608.84,-77.76 -907.8,-73.94l-1156.26 6553.66c299.18,-3.26 602.91,21.01 908.28,74.85 305.37,53.85 599.09,134.94 879.12,240.31l1155.03 -6553.88z"/>
   <path class="fil0 str0" d="M9158.04 3549.4c305.38,53.85 599.1,134.94 879.11,240.31l256.74 -1459.12c-279.63,-105.84 -573.12,-187.19 -878.38,-241.01 -305.25,-53.82 -608.86,-77.77 -907.83,-73.94l-257.91 1458.91c299.17,-3.25 602.91,21.01 908.28,74.85z"/>
  </g>
 </g>
</svg>
