<?xml version="1.0" encoding="UTF-8"?>
<!DOCTYPE svg PUBLIC "-//W3C//DTD SVG 1.1//EN" "http://www.w3.org/Graphics/SVG/1.1/DTD/svg11.dtd">
<!-- Creator: CorelDRAW 2021 (64-Bit) -->
<svg xmlns="http://www.w3.org/2000/svg" xml:space="preserve" width="16in" height="16in" version="1.1" style="shape-rendering:geometricPrecision; text-rendering:geometricPrecision; image-rendering:optimizeQuality; fill-rule:evenodd; clip-rule:evenodd"
viewBox="0 0 16000 16000"
 xmlns:xlink="http://www.w3.org/1999/xlink"
 xmlns:xodm="http://www.corel.com/coreldraw/odm/2003">
 <defs>
  <style type="text/css">
   <![CDATA[
    .str0 {stroke:black;stroke-width:56.44;stroke-linecap:round;stroke-linejoin:round;stroke-miterlimit:2.61313}
    .fil0 {fill:none}
   ]]>
  </style>
 </defs>
 <g id="Layer_x0020_1">
  <metadata id="CorelCorpID_0Corel-Layer"/>
  <g id="_2314693445264">
   <path class="fil0 str0" d="M9613.06 7930.04l1652.12 291.31c-113.56,-869.89 -602.83,-1646.9 -1325.7,-2127.71l332.44 -1885.35c1961.73,891.95 3151.1,3025.52 2759.56,5245.99 -464.15,2632.41 -2974.42,4390.1 -5606.82,3925.94 -2632.4,-464.16 -4390.11,-2974.42 -3925.94,-5606.82 391.53,-2220.47 2238.9,-3818.59 4387.38,-3985.79l-332.44 1885.34c-1132.53,274.58 -2052.25,1194.53 -2267.55,2415.61 -290.1,1645.25 808.46,3214.17 2453.71,3504.26 1333.88,235.21 2617.49,-442.43 3210.21,-1584.08l-1652.14 -291.31 315.16 -1787.39zm370.85 -3841.58c-279.63,-105.84 -573.11,-187.18 -878.37,-241.01 -305.24,-53.83 -608.84,-77.76 -907.8,-73.94l-1156.26 6553.66c299.18,-3.26 602.91,21.01 908.28,74.85 305.37,53.85 599.09,134.94 879.12,240.31l1155.03 -6553.88z"/>
   <path class="fil0 str0" d="M9158.04 3549.4c305.38,53.85 599.1,134.94 879.11,240.31l256.74 -1459.12c-279.63,-105.84 -573.12,-187.19 -878.38,-241.01 -305.25,-53.82 -608.86,-77.77 -907.83,-73.94l-257.91 1458.91c299.17,-3.25 602.91,21.01 908.28,74.85z"/>
  </g>
  <path class="fil0 str0" d="M7424.66 13380.22c-2632.4,-464.16 -4390.11,-2974.42 -3925.94,-5606.82 167.38,-949.23 600.8,-1784.73 1210.07,-2443.32 -749.04,692.98 -1285.88,1627.54 -1476.74,2709.99 -464.17,2632.41 1293.53,5142.66 3925.95,5606.82 1683.17,296.79 3316.4,-314.81 4396.75,-1482.62 -1072.53,992.27 -2580.14,1489.25 -4130.09,1215.95zm3524.39 -3369.59l-1597.04 -281.59 0.35 -1.99 -54.47 -9.61 261.17 -1481.17 -158.55 -27.96 -315.17 1787.39 1652.15 291.33c-53.49,103.02 -112.61,202.27 -176.88,297.41 149.75,-174.12 280.51,-366.28 388.44,-573.81zm316.13 -1789.27c-113.56,-869.89 -602.83,-1646.9 -1325.7,-2127.71l270.71 -1535.32c-49.75,-24.74 -100.03,-48.67 -150.83,-71.77l-332.43 1885.36c631.06,419.73 1084.1,1065.22 1264.54,1801.17l273.71 48.26zm-3190.6 -4574.17c288.03,-3.14 580.3,19.24 874.18,68.96 82.59,10.25 165.37,22.67 248.27,37.29 231.08,40.75 455.42,97.26 672.11,168.24l31.83 -180.91c-238.62,-81.81 -486.68,-146.18 -742.93,-191.36 -305.37,-53.85 -609.1,-78.11 -908.28,-74.85l227.34 -1285.95c-48.31,-0.83 -96.52,-0.93 -144.6,-0.31l-257.91 1458.91zm-1033.1 6680l1125.74 -6380.71c-48.34,-0.83 -96.56,-0.93 -144.67,-0.32l-1156.26 6553.66c299.18,-3.26 602.91,21.01 908.27,74.85 305.37,53.85 599.1,134.94 879.12,240.32l39.05 -221.58c-238.66,-81.82 -486.72,-146.19 -742.99,-191.38 -305.37,-53.84 -609.1,-78.11 -908.28,-74.85z"/>
 </g>
</svg>
